<svg width="146" height="112" viewBox="0 0 146 112" fill="none" xmlns="http://www.w3.org/2000/svg">
<path d="M133.051 32.4159C130.611 32.4159 128.448 31.3807 126.562 29.3102C124.787 27.1103 123.9 24.5869 123.9 21.74C123.9 18.7637 124.787 16.2403 126.562 14.1698C128.448 12.0993 130.611 11.0641 133.051 11.0641C135.602 11.0641 137.766 12.0993 139.54 14.1698C141.315 16.2403 142.203 18.7637 142.203 21.74C142.203 24.5869 141.315 27.1103 139.54 29.3102C137.766 31.3807 135.602 32.4159 133.051 32.4159ZM121.903 112C119.906 112 118.908 111.288 118.908 109.865C118.908 109.347 119.074 108.83 119.407 108.312C119.851 107.924 120.461 107.665 121.237 107.536C123.678 106.889 126.118 105.789 128.559 104.236C130.999 102.683 133.051 100.418 134.715 97.4419C136.379 94.595 137.211 90.907 137.211 86.3778C137.211 84.825 136.601 83.078 135.381 81.1369C134.16 79.0664 132.607 77.9665 130.722 77.8371C128.281 77.5783 126.34 76.6724 124.898 75.1196C123.567 73.5667 122.901 71.755 122.901 69.6846C122.901 67.0965 123.789 64.9613 125.564 63.279C127.449 61.5968 129.612 60.7556 132.053 60.7556C136.046 60.7556 139.319 62.5673 141.87 66.1906C144.532 69.6846 145.863 74.149 145.863 79.5841C145.863 84.5014 145.031 88.9012 143.367 92.7834C141.703 96.7949 139.596 100.224 137.045 103.071C134.493 105.918 131.831 108.118 129.058 109.671C126.396 111.224 124.011 112 121.903 112Z" fill="url(#paint0_linear_2_3)"/>
<path d="M86.1876 86.3779C80.0866 86.3779 74.7622 84.6309 70.2142 81.137C65.6661 77.643 62.1165 72.7256 59.5652 66.3848C57.0138 59.9145 55.7382 52.4738 55.7382 44.0624C55.7382 36.5569 57.1802 29.7632 60.0643 23.6811C63.0594 17.4697 66.9973 12.4876 71.8781 8.73486C76.7588 4.98211 82.0833 3.10574 87.8515 3.10574C92.2886 3.10574 96.2265 4.14098 99.6652 6.21146C103.104 8.28194 105.766 11.1936 107.652 14.9463C109.649 18.5696 110.647 22.7753 110.647 27.5633C110.647 31.5748 108.983 33.5806 105.655 33.5806H70.5469C68.994 33.5806 67.8847 34.0983 67.2191 35.1335C66.6645 36.0393 66.3872 37.9157 66.3872 40.7626C66.3872 46.974 67.5519 52.6679 69.8814 57.8441C72.2108 62.8909 75.3168 66.9671 79.1992 70.0728C83.0817 73.0492 87.3524 74.5373 92.0113 74.5373C95.3391 74.5373 98.3341 73.8256 100.996 72.4021C103.77 70.8493 106.21 68.6494 108.318 65.8025C108.761 65.1554 109.094 64.7672 109.316 64.6378C109.538 64.379 109.815 64.2496 110.148 64.2496C111.035 64.2496 111.479 64.8966 111.479 66.1907C111.479 68.6494 110.481 71.3669 108.484 74.3432C106.82 76.8019 104.823 78.9371 102.494 80.7487C100.164 82.5604 97.6131 83.9192 94.8399 84.825C92.0667 85.8602 89.1826 86.3779 86.1876 86.3779ZM70.8797 27.5633H86.0212C88.6835 27.5633 90.9575 27.4986 92.8432 27.3692C94.729 27.2398 96.5593 26.981 98.3341 26.5928C98.8888 26.4634 99.2215 26.0751 99.3325 25.4281C99.5543 24.6517 99.6652 23.6164 99.6652 22.3224C99.6652 18.5696 98.2232 15.3992 95.3391 12.8111C92.5659 10.0936 89.2381 8.73486 85.3557 8.73486C82.8044 8.73486 80.253 9.6407 77.7017 11.4524C75.1504 13.1346 73.0428 15.2698 71.3789 17.8579C69.715 20.446 68.883 23.0341 68.883 25.6222C68.883 26.9163 69.5486 27.5633 70.8797 27.5633Z" fill="url(#paint1_linear_2_3)"/>
<path d="M3.32781 84.0486C2.21854 84.0486 1.38659 83.8544 0.831952 83.4662C0.277317 83.2074 0 82.6898 0 81.9134C0 80.8781 0.332781 80.2311 0.998342 79.9723C1.6639 79.5841 2.60678 79.1959 3.82698 78.8076C5.93459 78.1606 7.48756 77.2548 8.48591 76.0901C9.59518 74.7961 10.1498 73.2432 10.1498 71.4316V29.6984C10.1498 26.2045 9.7061 23.1635 8.81869 20.5754C7.93127 17.9873 6.10098 16.3697 3.32781 15.7227C2.8841 15.5933 2.49586 15.2698 2.16308 14.7522C1.83029 14.2345 1.6639 13.7169 1.6639 13.1993C1.6639 11.9053 2.16307 11.1288 3.16142 10.87C6.04552 9.83478 9.04054 8.34662 12.1465 6.40555C15.3634 4.33507 17.8592 2.6528 19.6341 1.35875C20.2996 0.841126 20.7988 0.51761 21.1316 0.388202C21.5753 0.129396 21.9081 0 22.1299 0C22.6846 0 22.9619 0.452912 22.9619 1.35875C22.9619 1.74696 22.9064 2.7175 22.7955 4.27036C22.7955 5.82322 22.74 7.63489 22.6291 9.70537C22.6291 11.7758 22.5736 13.8463 22.4627 15.9168C22.4627 16.1756 22.5736 16.305 22.7955 16.305C24.5703 13.7169 26.5115 11.4523 28.6191 9.51127C30.8377 7.57019 33.0562 6.01732 35.2748 4.85268C37.6042 3.68803 39.8228 3.10571 41.9304 3.10571C44.2598 3.10571 46.1456 3.68803 47.5876 4.85268C49.1406 6.01732 49.9171 7.50548 49.9171 9.31715C49.9171 10.6112 49.5843 12.0347 48.9188 13.5875C48.3641 15.1404 47.5876 16.4991 46.5893 17.6638C45.591 18.8284 44.5372 19.4107 43.4279 19.4107C42.7623 19.4107 42.0413 19.2813 41.2648 19.0225C40.4883 18.6343 39.6564 18.1814 38.769 17.6638C37.8815 17.2756 36.9941 16.8873 36.1067 16.4991C35.2193 16.1109 34.3319 15.9168 33.4445 15.9168C30.7822 15.9168 28.1754 17.0168 25.6241 19.2166C23.1837 21.4165 21.9635 25.7516 21.9635 32.2218V71.4316C21.9635 73.1138 22.74 74.5373 24.293 75.7019C25.846 76.7372 28.009 77.7724 30.7822 78.8076C32.0024 79.1959 32.9453 79.5841 33.6108 79.9723C34.2764 80.3605 34.6092 81.0075 34.6092 81.9134C34.6092 83.3368 33.4999 84.0486 31.2814 84.0486C27.9536 84.0486 25.4023 83.8544 23.6274 83.4662C21.9635 83.2074 19.6895 83.078 16.8054 83.078C14.9197 83.078 13.3667 83.1427 12.1465 83.2721C11.0372 83.4015 9.81703 83.5309 8.48591 83.6603C7.26571 83.9192 5.54635 84.0486 3.32781 84.0486Z" fill="url(#paint2_linear_2_3)"/>
<defs>
<linearGradient id="paint0_linear_2_3" x1="132.386" y1="11.0641" x2="132.386" y2="112" gradientUnits="userSpaceOnUse">
<stop stop-color="white"/>
<stop offset="1" stop-color="#FAFAFA" stop-opacity="0.64"/>
</linearGradient>
<linearGradient id="paint1_linear_2_3" x1="83.6086" y1="3.10574" x2="83.6086" y2="86.3779" gradientUnits="userSpaceOnUse">
<stop stop-color="white"/>
<stop offset="1" stop-color="#FAFAFA" stop-opacity="0.64"/>
</linearGradient>
<linearGradient id="paint2_linear_2_3" x1="24.9586" y1="0" x2="24.9586" y2="84.0486" gradientUnits="userSpaceOnUse">
<stop stop-color="white"/>
<stop offset="1" stop-color="#FAFAFA" stop-opacity="0.64"/>
</linearGradient>
</defs>
</svg>
